<mxfile host="app.diagrams.net" modified="2024-01-04T13:58:25.869Z" agent="Mozilla/5.0 (X11; Linux x86_64) AppleWebKit/537.36 (KHTML, like Gecko) Chrome/120.0.0.0 Safari/537.36 Edg/120.0.0.0" etag="6Tt4EvvRBooLNTKMG2_k" version="22.1.16" type="device">
  <diagram name="Page-1" id="0783ab3e-0a74-02c8-0abd-f7b4e66b4bec">
    <mxGraphModel dx="1259" dy="809" grid="0" gridSize="10" guides="1" tooltips="1" connect="1" arrows="1" fold="1" page="1" pageScale="1" pageWidth="850" pageHeight="1100" background="none" math="0" shadow="0">
      <root>
        <mxCell id="0" />
        <mxCell id="1" parent="0" />
        <mxCell id="ExgkvqmmtmAxwdIGnmoG-92" value="" style="rounded=0;whiteSpace=wrap;html=1;fillColor=#f5f5f5;strokeColor=#666666;movable=1;resizable=1;rotatable=1;deletable=1;editable=1;locked=0;connectable=1;fontColor=#333333;" vertex="1" parent="1">
          <mxGeometry x="38" y="468" width="793" height="217" as="geometry" />
        </mxCell>
        <mxCell id="ExgkvqmmtmAxwdIGnmoG-27" value="" style="rounded=0;whiteSpace=wrap;html=1;fillColor=#f5f5f5;fontColor=#333333;strokeColor=#666666;" vertex="1" parent="1">
          <mxGeometry x="38" y="34" width="793" height="217" as="geometry" />
        </mxCell>
        <mxCell id="ExgkvqmmtmAxwdIGnmoG-29" value="" style="rounded=0;whiteSpace=wrap;html=1;fillColor=#f5f5f5;strokeColor=#666666;movable=1;resizable=1;rotatable=1;deletable=1;editable=1;locked=0;connectable=1;fontColor=#333333;" vertex="1" parent="1">
          <mxGeometry x="38" y="251" width="793" height="217" as="geometry" />
        </mxCell>
        <mxCell id="ExgkvqmmtmAxwdIGnmoG-33" style="edgeStyle=orthogonalEdgeStyle;rounded=0;orthogonalLoop=1;jettySize=auto;html=1;entryX=0;entryY=0.5;entryDx=0;entryDy=0;" edge="1" parent="1" source="ExgkvqmmtmAxwdIGnmoG-6" target="ExgkvqmmtmAxwdIGnmoG-8">
          <mxGeometry relative="1" as="geometry">
            <mxPoint x="304.31246185302734" y="313.0000000000001" as="targetPoint" />
          </mxGeometry>
        </mxCell>
        <mxCell id="ExgkvqmmtmAxwdIGnmoG-6" value="verifica se o cliente tem cadastro" style="rounded=1;whiteSpace=wrap;html=1;" vertex="1" parent="1">
          <mxGeometry x="125" y="288.5" width="136" height="49" as="geometry" />
        </mxCell>
        <mxCell id="ExgkvqmmtmAxwdIGnmoG-12" value="realiza o cadastro" style="rounded=1;whiteSpace=wrap;html=1;" vertex="1" parent="1">
          <mxGeometry x="293.5" y="396" width="106" height="45.5" as="geometry" />
        </mxCell>
        <mxCell id="ExgkvqmmtmAxwdIGnmoG-34" style="edgeStyle=orthogonalEdgeStyle;rounded=0;orthogonalLoop=1;jettySize=auto;html=1;entryX=0.5;entryY=0;entryDx=0;entryDy=0;" edge="1" parent="1" source="ExgkvqmmtmAxwdIGnmoG-8" target="ExgkvqmmtmAxwdIGnmoG-12">
          <mxGeometry relative="1" as="geometry" />
        </mxCell>
        <mxCell id="ExgkvqmmtmAxwdIGnmoG-37" style="edgeStyle=orthogonalEdgeStyle;rounded=0;orthogonalLoop=1;jettySize=auto;html=1;entryX=0;entryY=0.5;entryDx=0;entryDy=0;" edge="1" parent="1" source="ExgkvqmmtmAxwdIGnmoG-8" target="ExgkvqmmtmAxwdIGnmoG-19">
          <mxGeometry relative="1" as="geometry" />
        </mxCell>
        <mxCell id="ExgkvqmmtmAxwdIGnmoG-8" value="" style="rhombus;whiteSpace=wrap;html=1;" vertex="1" parent="1">
          <mxGeometry x="325" y="294" width="43" height="38" as="geometry" />
        </mxCell>
        <mxCell id="ExgkvqmmtmAxwdIGnmoG-3" value="escolhe os produtos" style="rounded=1;whiteSpace=wrap;html=1;" vertex="1" parent="1">
          <mxGeometry x="143" y="102" width="100" height="46" as="geometry" />
        </mxCell>
        <mxCell id="ExgkvqmmtmAxwdIGnmoG-9" value="" style="edgeStyle=orthogonalEdgeStyle;rounded=0;orthogonalLoop=1;jettySize=auto;html=1;" edge="1" parent="1" source="ExgkvqmmtmAxwdIGnmoG-3" target="ExgkvqmmtmAxwdIGnmoG-6">
          <mxGeometry relative="1" as="geometry" />
        </mxCell>
        <mxCell id="ExgkvqmmtmAxwdIGnmoG-28" value="cliente&amp;nbsp;" style="text;html=1;strokeColor=none;fillColor=none;align=center;verticalAlign=middle;whiteSpace=wrap;rounded=0;" vertex="1" parent="1">
          <mxGeometry x="15" y="31" width="115" height="30" as="geometry" />
        </mxCell>
        <mxCell id="ExgkvqmmtmAxwdIGnmoG-30" value="aplicação" style="text;html=1;strokeColor=none;fillColor=none;align=center;verticalAlign=middle;whiteSpace=wrap;rounded=0;" vertex="1" parent="1">
          <mxGeometry x="48" y="245" width="60" height="30" as="geometry" />
        </mxCell>
        <mxCell id="ExgkvqmmtmAxwdIGnmoG-1" value="" style="ellipse;html=1;shape=endState;fillColor=#000000;strokeColor=none;" vertex="1" parent="1">
          <mxGeometry x="56" y="110" width="30" height="30" as="geometry" />
        </mxCell>
        <mxCell id="ExgkvqmmtmAxwdIGnmoG-2" value="" style="endArrow=classic;html=1;rounded=0;exitX=1;exitY=0.5;exitDx=0;exitDy=0;" edge="1" parent="1" source="ExgkvqmmtmAxwdIGnmoG-1">
          <mxGeometry width="50" height="50" relative="1" as="geometry">
            <mxPoint x="290" y="269" as="sourcePoint" />
            <mxPoint x="143" y="125" as="targetPoint" />
          </mxGeometry>
        </mxCell>
        <mxCell id="ExgkvqmmtmAxwdIGnmoG-39" style="edgeStyle=orthogonalEdgeStyle;rounded=0;orthogonalLoop=1;jettySize=auto;html=1;entryX=0.5;entryY=0;entryDx=0;entryDy=0;" edge="1" parent="1" source="ExgkvqmmtmAxwdIGnmoG-19" target="ExgkvqmmtmAxwdIGnmoG-36">
          <mxGeometry relative="1" as="geometry" />
        </mxCell>
        <mxCell id="ExgkvqmmtmAxwdIGnmoG-19" value="consulta o cadastro&amp;nbsp;" style="rounded=1;whiteSpace=wrap;html=1;" vertex="1" parent="1">
          <mxGeometry x="459" y="290.75" width="105" height="44.5" as="geometry" />
        </mxCell>
        <mxCell id="ExgkvqmmtmAxwdIGnmoG-21" value="&lt;font style=&quot;font-size: 10px;&quot;&gt;já tem&lt;/font&gt;" style="text;html=1;strokeColor=none;fillColor=none;align=center;verticalAlign=middle;whiteSpace=wrap;rounded=0;" vertex="1" parent="1">
          <mxGeometry x="390" y="288.5" width="60" height="30" as="geometry" />
        </mxCell>
        <mxCell id="ExgkvqmmtmAxwdIGnmoG-11" value="&lt;font style=&quot;font-size: 10px;&quot;&gt;ainda não tem&lt;/font&gt;" style="text;html=1;strokeColor=none;fillColor=none;align=center;verticalAlign=middle;whiteSpace=wrap;rounded=0;" vertex="1" parent="1">
          <mxGeometry x="297" y="345.5" width="50" height="28" as="geometry" />
        </mxCell>
        <mxCell id="ExgkvqmmtmAxwdIGnmoG-36" value="escolhe a forma de pgto (boleto ou pix)" style="rounded=1;whiteSpace=wrap;html=1;" vertex="1" parent="1">
          <mxGeometry x="440.5" y="396" width="142" height="45.5" as="geometry" />
        </mxCell>
        <mxCell id="ExgkvqmmtmAxwdIGnmoG-84" value="API de pagamentos" style="text;html=1;strokeColor=none;fillColor=none;align=center;verticalAlign=middle;whiteSpace=wrap;rounded=0;" vertex="1" parent="1">
          <mxGeometry x="41" y="468" width="124" height="30" as="geometry" />
        </mxCell>
        <mxCell id="ExgkvqmmtmAxwdIGnmoG-91" value="" style="endArrow=classic;html=1;rounded=0;exitX=0.5;exitY=1;exitDx=0;exitDy=0;entryX=0.5;entryY=0;entryDx=0;entryDy=0;" edge="1" parent="1" source="ExgkvqmmtmAxwdIGnmoG-36" target="ExgkvqmmtmAxwdIGnmoG-93">
          <mxGeometry width="50" height="50" relative="1" as="geometry">
            <mxPoint x="454" y="557" as="sourcePoint" />
            <mxPoint x="554" y="540" as="targetPoint" />
          </mxGeometry>
        </mxCell>
        <mxCell id="ExgkvqmmtmAxwdIGnmoG-127" style="edgeStyle=orthogonalEdgeStyle;rounded=0;orthogonalLoop=1;jettySize=auto;html=1;entryX=1;entryY=0.5;entryDx=0;entryDy=0;" edge="1" parent="1" source="ExgkvqmmtmAxwdIGnmoG-93" target="ExgkvqmmtmAxwdIGnmoG-98">
          <mxGeometry relative="1" as="geometry" />
        </mxCell>
        <mxCell id="ExgkvqmmtmAxwdIGnmoG-93" value="consulta se o cliente existe no banco da API" style="rounded=1;whiteSpace=wrap;html=1;" vertex="1" parent="1">
          <mxGeometry x="440.5" y="509" width="142" height="45.5" as="geometry" />
        </mxCell>
        <mxCell id="ExgkvqmmtmAxwdIGnmoG-131" style="edgeStyle=orthogonalEdgeStyle;rounded=0;orthogonalLoop=1;jettySize=auto;html=1;entryX=1;entryY=0.5;entryDx=0;entryDy=0;" edge="1" parent="1" source="ExgkvqmmtmAxwdIGnmoG-98" target="ExgkvqmmtmAxwdIGnmoG-124">
          <mxGeometry relative="1" as="geometry" />
        </mxCell>
        <mxCell id="ExgkvqmmtmAxwdIGnmoG-135" style="edgeStyle=orthogonalEdgeStyle;rounded=0;orthogonalLoop=1;jettySize=auto;html=1;entryX=0.5;entryY=0;entryDx=0;entryDy=0;" edge="1" parent="1" source="ExgkvqmmtmAxwdIGnmoG-98" target="ExgkvqmmtmAxwdIGnmoG-134">
          <mxGeometry relative="1" as="geometry" />
        </mxCell>
        <mxCell id="ExgkvqmmtmAxwdIGnmoG-98" value="" style="rhombus;whiteSpace=wrap;html=1;fillColor=#FDFCFF;strokeColor=#000000;" vertex="1" parent="1">
          <mxGeometry x="339" y="512" width="43" height="38" as="geometry" />
        </mxCell>
        <mxCell id="ExgkvqmmtmAxwdIGnmoG-100" value="" style="endArrow=classic;html=1;rounded=0;entryX=0;entryY=0.5;entryDx=0;entryDy=0;exitX=1;exitY=0.5;exitDx=0;exitDy=0;" edge="1" parent="1" source="ExgkvqmmtmAxwdIGnmoG-12" target="ExgkvqmmtmAxwdIGnmoG-36">
          <mxGeometry width="50" height="50" relative="1" as="geometry">
            <mxPoint x="346" y="458" as="sourcePoint" />
            <mxPoint x="396" y="408" as="targetPoint" />
          </mxGeometry>
        </mxCell>
        <mxCell id="ExgkvqmmtmAxwdIGnmoG-143" style="edgeStyle=orthogonalEdgeStyle;rounded=0;orthogonalLoop=1;jettySize=auto;html=1;entryX=0.5;entryY=1;entryDx=0;entryDy=0;" edge="1" parent="1" target="ExgkvqmmtmAxwdIGnmoG-136">
          <mxGeometry relative="1" as="geometry">
            <mxPoint x="172" y="553" as="sourcePoint" />
            <Array as="points">
              <mxPoint x="210" y="553" />
              <mxPoint x="210" y="667" />
              <mxPoint x="635" y="667" />
            </Array>
          </mxGeometry>
        </mxCell>
        <mxCell id="ExgkvqmmtmAxwdIGnmoG-124" value="cria o cliente na API" style="rounded=1;whiteSpace=wrap;html=1;" vertex="1" parent="1">
          <mxGeometry x="153" y="509" width="109" height="44" as="geometry" />
        </mxCell>
        <mxCell id="ExgkvqmmtmAxwdIGnmoG-132" value="&lt;font style=&quot;font-size: 10px;&quot;&gt;não existe&lt;/font&gt;" style="text;html=1;strokeColor=none;fillColor=none;align=center;verticalAlign=middle;whiteSpace=wrap;rounded=0;" vertex="1" parent="1">
          <mxGeometry x="282" y="507" width="50" height="28" as="geometry" />
        </mxCell>
        <mxCell id="ExgkvqmmtmAxwdIGnmoG-133" value="&lt;font style=&quot;font-size: 10px;&quot;&gt;existe&lt;/font&gt;" style="text;html=1;strokeColor=none;fillColor=none;align=center;verticalAlign=middle;whiteSpace=wrap;rounded=0;" vertex="1" parent="1">
          <mxGeometry x="314" y="558" width="60" height="30" as="geometry" />
        </mxCell>
        <mxCell id="ExgkvqmmtmAxwdIGnmoG-137" style="edgeStyle=orthogonalEdgeStyle;rounded=0;orthogonalLoop=1;jettySize=auto;html=1;entryX=0;entryY=0.5;entryDx=0;entryDy=0;" edge="1" parent="1" target="ExgkvqmmtmAxwdIGnmoG-136">
          <mxGeometry relative="1" as="geometry">
            <mxPoint x="375.00000000000045" y="625" as="sourcePoint" />
          </mxGeometry>
        </mxCell>
        <mxCell id="ExgkvqmmtmAxwdIGnmoG-134" value="cria o cliente na API" style="rounded=1;whiteSpace=wrap;html=1;" vertex="1" parent="1">
          <mxGeometry x="306" y="603" width="109" height="44" as="geometry" />
        </mxCell>
        <mxCell id="ExgkvqmmtmAxwdIGnmoG-146" style="edgeStyle=orthogonalEdgeStyle;rounded=0;orthogonalLoop=1;jettySize=auto;html=1;entryX=0.5;entryY=1;entryDx=0;entryDy=0;" edge="1" parent="1" source="ExgkvqmmtmAxwdIGnmoG-136" target="ExgkvqmmtmAxwdIGnmoG-145">
          <mxGeometry relative="1" as="geometry" />
        </mxCell>
        <mxCell id="ExgkvqmmtmAxwdIGnmoG-136" value="criação do boleto ou PIX" style="rounded=1;whiteSpace=wrap;html=1;" vertex="1" parent="1">
          <mxGeometry x="580" y="603" width="109" height="44" as="geometry" />
        </mxCell>
        <mxCell id="ExgkvqmmtmAxwdIGnmoG-149" style="edgeStyle=orthogonalEdgeStyle;rounded=0;orthogonalLoop=1;jettySize=auto;html=1;entryX=0.5;entryY=0;entryDx=0;entryDy=0;" edge="1" parent="1" source="ExgkvqmmtmAxwdIGnmoG-145" target="ExgkvqmmtmAxwdIGnmoG-148">
          <mxGeometry relative="1" as="geometry">
            <Array as="points">
              <mxPoint x="735" y="170" />
            </Array>
          </mxGeometry>
        </mxCell>
        <mxCell id="ExgkvqmmtmAxwdIGnmoG-145" value="realiza o pagemento" style="rounded=1;whiteSpace=wrap;html=1;" vertex="1" parent="1">
          <mxGeometry x="582.5" y="146" width="105" height="44.5" as="geometry" />
        </mxCell>
        <mxCell id="ExgkvqmmtmAxwdIGnmoG-152" style="edgeStyle=orthogonalEdgeStyle;rounded=0;orthogonalLoop=1;jettySize=auto;html=1;" edge="1" parent="1" source="ExgkvqmmtmAxwdIGnmoG-148" target="ExgkvqmmtmAxwdIGnmoG-151">
          <mxGeometry relative="1" as="geometry" />
        </mxCell>
        <mxCell id="ExgkvqmmtmAxwdIGnmoG-148" value="envvia os dados da compra por email" style="rounded=1;whiteSpace=wrap;html=1;" vertex="1" parent="1">
          <mxGeometry x="682" y="329" width="105" height="44.5" as="geometry" />
        </mxCell>
        <mxCell id="ExgkvqmmtmAxwdIGnmoG-151" value="" style="ellipse;html=1;shape=endState;fillColor=#000000;strokeColor=default;" vertex="1" parent="1">
          <mxGeometry x="719.5" y="411.5" width="30" height="30" as="geometry" />
        </mxCell>
      </root>
    </mxGraphModel>
  </diagram>
</mxfile>
